<?xml version="1.0" encoding="UTF-8" standalone="yes"?>
<svg xmlns="http://www.w3.org/2000/svg" xmlns:xlink="http://www.w3.org/1999/xlink" width="50px" height="50px" viewBox="0 0 50 50" version="1.1" fill="#000000">
  <g id="surface320836">
    <path style=" stroke:none;fill-rule:nonzero;fill:#000000;fill-opacity:1;" d="M 41.667969 8.332031 L 8.332031 8.332031 C 6.042969 8.332031 4.167969 10.207031 4.167969 12.5 L 4.167969 37.5 C 4.167969 39.792969 6.042969 41.667969 8.332031 41.667969 L 41.667969 41.667969 C 43.957031 41.667969 45.832031 39.792969 45.832031 37.5 L 45.832031 12.5 C 45.832031 10.207031 43.957031 8.332031 41.667969 8.332031 Z M 25 35.417969 C 19.167969 35.417969 14.582031 30.832031 14.582031 25 C 14.582031 19.167969 19.167969 14.582031 25 14.582031 C 30.832031 14.582031 35.417969 19.167969 35.417969 25 C 35.417969 30.832031 30.832031 35.417969 25 35.417969 Z M 25 35.417969 "/>
    <path style=" stroke:none;fill-rule:nonzero;fill:#000000;fill-opacity:1;" d="M 25 17.707031 C 20.972656 17.707031 17.707031 20.972656 17.707031 25 C 17.707031 29.027344 20.972656 32.292969 25 32.292969 C 29.027344 32.292969 32.292969 29.027344 32.292969 25 C 32.292969 20.972656 29.027344 17.707031 25 17.707031 Z M 37.5 10.417969 L 31.25 4.167969 L 18.75 4.167969 L 12.5 10.417969 Z M 37.5 10.417969 "/>
  </g>
</svg>